HIERARCHY
ROOT Hips
{
  OFFSET -35.2597 29.1586 114.425
  CHANNELS 6 Xposition Yposition Zposition Zrotation Xrotation Yrotation
  JOINT LeftUpLeg
  {
    OFFSET 8.64259 1.95398 -2.38835
    CHANNELS 3 Zrotation Xrotation Yrotation
    JOINT LeftLeg
    {
      OFFSET 43.7702 0 0
      CHANNELS 3 Zrotation Xrotation Yrotation
      JOINT LeftFoot
      {
        OFFSET 40.6238 0 0
        CHANNELS 3 Zrotation Xrotation Yrotation
        JOINT LeftToeBase
        {
          OFFSET 12.7242 0 0
          CHANNELS 3 Zrotation Xrotation Yrotation
          End Site
          {
            OFFSET 0 0 0
          }
        }
      }
    }
  }
  JOINT RightUpLeg
  {
    OFFSET -8.2249 1.95398 -2.59336
    CHANNELS 3 Zrotation Xrotation Yrotation
    JOINT RightLeg
    {
      OFFSET 43.5653 0 0
      CHANNELS 3 Zrotation Xrotation Yrotation
      JOINT RightFoot
      {
        OFFSET 40.6238 0 0
        CHANNELS 3 Zrotation Xrotation Yrotation
        JOINT RightToeBase
        {
          OFFSET 12.7242 0 0
          CHANNELS 3 Zrotation Xrotation Yrotation
          End Site
          {
            OFFSET 0 0 0
          }
        }
      }
    }
  }
  JOINT Spine
  {
    OFFSET 0.165834 0.87714 6.61349
    CHANNELS 3 Zrotation Xrotation Yrotation
    JOINT Spine1
    {
      OFFSET 7.38963 1.71661e-005 0
      CHANNELS 3 Zrotation Xrotation Yrotation
      JOINT Spine2
      {
        OFFSET 11.9445 1.14441e-005 0
        CHANNELS 3 Zrotation Xrotation Yrotation
        JOINT Spine3
        {
          OFFSET 14.7254 4.19617e-005 0
          CHANNELS 3 Zrotation Xrotation Yrotation
          JOINT Spine4
          {
            OFFSET 10.9679 0 0
            CHANNELS 3 Zrotation Xrotation Yrotation
            JOINT RightShoulder
            {
              OFFSET 2.46616 -1.6653 3.69651
              CHANNELS 3 Zrotation Xrotation Yrotation
              JOINT RightArm
              {
                OFFSET 13.0012 0 0
                CHANNELS 3 Zrotation Xrotation Yrotation
                JOINT RightForeArm
                {
                  OFFSET 28.7848 1.62311e-005 0
                  CHANNELS 3 Zrotation Xrotation Yrotation
                  JOINT RightHand
                  {
                    OFFSET 26.5688 1.62095e-005 0
                    CHANNELS 3 Zrotation Xrotation Yrotation
                    End Site
                    {
                      OFFSET 0 0 0
                    }
                  }
                }
              }
            }
            JOINT LeftShoulder
            {
              OFFSET 2.38034 -1.29275 -3.7523
              CHANNELS 3 Zrotation Xrotation Yrotation
              JOINT LeftArm
              {
                OFFSET 16.3182 6.07031e-005 0
                CHANNELS 3 Zrotation Xrotation Yrotation
                JOINT LeftForeArm
                {
                  OFFSET 27.0901 0 0
                  CHANNELS 3 Zrotation Xrotation Yrotation
                  JOINT LeftHand
                  {
                    OFFSET 24.5451 1.51738e-005 0
                    CHANNELS 3 Zrotation Xrotation Yrotation
                    End Site
                    {
                      OFFSET 0 0 0
                    }
                  }
                }
              }
            }
            JOINT Neck
            {
              OFFSET 5.0226 -0.0266342 0
              CHANNELS 3 Zrotation Xrotation Yrotation
              JOINT Head
              {
                OFFSET 6.69364 2.86102e-005 0
                CHANNELS 3 Zrotation Xrotation Yrotation
                End Site
                {
                  OFFSET 0 0 0
                }
              }
            }
          }
        }
      }
    }
  }
}
MOTION
Frames:	7
Frame Time:	0.0416667
29.6925 100.407 15.85 6.09477 -86.5648 6.9283 -174.943 8.38852 93.1719 -11.0722 0.525132 0.450221 67.3635 1.27281 -5.49245 20.0902 -8.93373 7.23473 175.257 3.56103 91.8494 -4.06595 0.582695 1.8603 63.6773 -1.36623 1.80397 25.8747 0.0267634 3.75226 0.536062 5.97592 -89.7405 14.9209 1.18951 0.346122 3.25044 1.20359 0.29341 -19.2878 1.03049 0.687641 0.724829 1.03049 0.687641 102.766 21.0252 -75.2195 -1.01689 38.2813 -59.1712 0.284733 54.6044 -7.06917 15.5963 -1.92973 -18.3835 -77.4531 11.9178 98.1621 -0.601358 -44.7111 -85.19 2.19718 -85.9672 -1.14648 -19.2455 -0.501575 -1.59907 33.0314 -3.16323 -5.3338 -11.9475 -0.475197 -2.49308 
29.4614 100.328 14.7256 5.18204 -85.7375 5.76011 -175.203 10.2208 92.9264 -11.683 0.442677 0.385502 67.1818 1.06559 -5.4635 20.1596 -9.91328 8.82569 174.966 5.25863 91.6649 -4.39848 0.538393 2.27201 63.8156 -1.51033 1.33471 25.5837 0.0809799 3.93484 0.535533 6.08148 -89.8406 14.7109 1.1389 0.155383 3.04041 1.14464 0.105096 -19.4981 1.03954 0.49052 0.514523 1.03954 0.49052 102.67 20.7601 -76.8307 -2.41819 38.9195 -57.1625 0.461276 55.8554 -7.22114 16.082 -2.44546 -21.4019 -78.1169 9.78149 95.2952 1.32903 -45.6166 -81.6453 1.95092 -84.7166 -1.41734 -22.1008 -0.195188 -3.78135 28.0648 -2.99278 -5.60675 -8.679 -0.610878 -1.50823 
29.2095 100.298 13.7109 8.60989 -85.1843 8.83256 -175.219 11.689 92.7349 -12.1427 0.660849 0.052025 66.802 1.24012 -5.23048 19.9399 -10.0099 8.75126 174.638 6.73288 91.3069 -4.99685 0.996314 2.59304 63.6601 -1.28635 1.47717 26.7782 -0.379198 3.927 0.421822 6.22195 -89.9444 14.4304 0.862783 -0.01002 2.75972 0.861509 -0.0479904 -19.7776 0.825908 0.249763 0.235063 0.825904 0.24976 102.648 17.3199 -78.3172 -2.0883 39.2225 -58.8518 0.317467 54.8418 -7.0976 16.959 -3.68403 -28.3804 -77.4277 0.792223 97.9201 -3.36866 -44.4597 -92.653 1.5761 -78.7219 -1.914 -23.8591 0.326029 -6.64565 20.7438 -2.87135 -5.744 -4.58168 -0.904624 -1.42289 
28.9342 100.293 12.6218 10.4973 -85.0308 10.5888 -174.923 12.927 92.8663 -12.7734 1.31963 -0.492941 66.4731 1.71512 -4.89398 19.2126 -10.3418 8.52388 174.691 8.0487 91.3961 -6.05769 1.5076 2.65171 63.7579 -1.37642 1.72738 25.5984 0.205705 3.53914 0.398094 6.49224 -90.1122 13.8911 0.734407 -0.324431 2.2203 0.719409 -0.356451 -20.3165 0.79795 -0.0887025 -0.303861 0.797948 -0.0887088 102.278 12.5101 -82.2736 -2.96121 39.002 -60.5302 -3.83725 51.5961 -1.94286 16.0574 -4.98142 -37.9167 -77.9288 -7.15821 96.546 -6.99566 -41.1094 -98.3166 1.49837 -71.1685 -2.14709 -27.6954 1.86943 -13.1953 15.8289 -2.84689 -4.04165 -4.39223 -1.57807 -1.97353 
28.7366 100.248 11.4033 15.4466 -84.8489 14.9232 -174.588 13.9866 92.571 -13.0889 2.06787 -1.26471 66.0723 2.42439 -4.64363 19.366 -10.3661 8.71477 174.381 10.4233 90.9516 -9.00011 2.18017 2.7858 64.7828 -1.48866 2.47215 23.207 0.991879 3.99052 0.368701 6.80473 -90.1259 13.2655 0.670914 -0.336281 1.59468 0.655459 -0.365505 -20.9418 0.740965 -0.119095 -0.929154 0.740962 -0.119103 102.352 6.47297 -81.5679 14.7721 38.8165 -43.0415 20.7754 22.0939 -52.3405 3.64491 -1.3585 -39.7447 -79.5788 -14.9473 92.4151 -10.9983 -33.4934 -99.9486 1.53282 -58.9725 -2.36795 -34.1969 5.76446 -24.7074 10.5408 -2.95739 -4.78242 -3.50036 -1.77551 -0.466646 
28.6515 100.186 10.0766 13.5081 -84.0507 12.7846 -174.423 15.6844 92.3668 -13.385 2.35274 -1.78708 65.8325 3.16829 -4.31204 19.594 -9.67644 7.89116 173.884 12.575 90.7556 -9.97986 1.09199 3.39726 64.4529 -1.54071 1.88034 23.3397 1.2202 3.18582 0.241155 7.16353 -90.3416 12.5467 0.31648 -0.717127 0.875568 0.284614 -0.730355 -21.6587 0.517368 -0.588848 -1.64607 0.517369 -0.58886 100.513 -4.20105 -87.6256 21.3365 39.2227 -26.9095 13.2698 5.60379 -74.0283 4.32078 -1.81096 -44.7763 -81.6188 -26.5458 89.0774 -18.6065 -24.6573 -70.9121 -27.6002 -28.8474 -52.1772 -26.4564 4.56603 -25.9323 8.70754 -1.39634 -1.80412 -6.09643 -0.92995 -1.46397 
28.6662 99.8217 8.76112 8.49168 -82.2921 7.39729 -174.171 18.9102 91.9031 -15.0009 2.8059 -2.60838 67.601 4.90305 -3.33357 19.4676 -9.70596 7.80998 173.559 16.5876 90.4423 -12.4069 0.716854 3.77808 64.9308 -1.80814 1.49074 25.0601 0.394321 3.59903 0.276498 7.65355 -90.4382 11.5681 0.344888 -0.912655 -0.103067 0.304384 -0.926957 -22.6367 0.603228 -0.766818 -2.62408 0.603224 -0.76683 98.5181 -10.1958 -93.3369 23.4427 34.4138 -4.90705 6.81704 0.252714 -88.7564 4.42887 -2.33098 -53.641 -84.1427 -35.5699 85.5704 -19.9019 -17.634 -52.2164 -19.8001 -14.3123 -61.7131 -27.8806 6.3548 -32.1559 8.46056 -1.20239 -3.06271 -8.65803 -0.600566 1.08359 
